HIERARCHY
ROOT Hips
{
	OFFSET 0.000000 97.167313 0.000000
	CHANNELS 6 Xposition Yposition Zposition Xrotation Yrotation Zrotation
	JOINT Spine
	{
		OFFSET 0.000000 13.784798 0.064400
		CHANNELS 3 Xrotation Yrotation Zrotation
		JOINT Spine1
		{
			OFFSET 0.000000 12.037903 0.404700
			CHANNELS 3 Xrotation Yrotation Zrotation
			JOINT Spine2
			{
				OFFSET 0.000000 17.795601 0.420200
				CHANNELS 3 Xrotation Yrotation Zrotation
				JOINT Neck
				{
					OFFSET 0.000000 39.131302 11.954600
					CHANNELS 3 Xrotation Yrotation Zrotation
					JOINT Head
					{
						OFFSET 0.000000 14.456192 15.627699
						CHANNELS 3 Xrotation Yrotation Zrotation
						JOINT HeadTop_End
						{
							OFFSET 0.000000 15.703506 7.603401
							CHANNELS 3 Xrotation Yrotation Zrotation
							End Site
							{
								OFFSET 0.000000 17.447403 0.000000
							}
						}
					}
				}
				JOINT LeftShoulder
				{
					OFFSET 17.399500 24.608795 1.168800
					CHANNELS 3 Xrotation Yrotation Zrotation
					JOINT LeftArm
					{
						OFFSET 18.980635 5.765305 1.818600
						CHANNELS 3 Xrotation Yrotation Zrotation
						JOINT LeftForeArm
						{
							OFFSET 49.290169 0.000000 0.000000
							CHANNELS 3 Xrotation Yrotation Zrotation
							JOINT LeftHand
							{
								OFFSET 31.562012 0.000000 0.000000
								CHANNELS 3 Xrotation Yrotation Zrotation
								JOINT LeftHandThumb1
								{
									OFFSET 6.133995 -4.388519 7.076070
									CHANNELS 3 Xrotation Yrotation Zrotation
									JOINT LeftHandThumb2
									{
										OFFSET 6.037666 -3.485840 3.485847
										CHANNELS 3 Xrotation Yrotation Zrotation
										JOINT LeftHandThumb3
										{
											OFFSET 6.496506 -3.750763 3.750761
											CHANNELS 3 Xrotation Yrotation Zrotation
											JOINT LeftHandThumb4
											{
												OFFSET 5.616882 -3.242905 3.242910
												CHANNELS 3 Xrotation Yrotation Zrotation
												End Site
												{
													OFFSET -1.254608 7.132141 0.375429
												}
											}
										}
									}
								}
								JOINT LeftHandPinky1
								{
									OFFSET 18.920792 -0.453171 -11.426712
									CHANNELS 3 Xrotation Yrotation Zrotation
									JOINT LeftHandPinky2
									{
										OFFSET 4.919586 0.000000 0.000000
										CHANNELS 3 Xrotation Yrotation Zrotation
										JOINT LeftHandPinky3
										{
											OFFSET 5.233047 0.000000 0.000000
											CHANNELS 3 Xrotation Yrotation Zrotation
											JOINT LeftHandPinky4
											{
												OFFSET 5.571716 0.000000 0.000000
												CHANNELS 3 Xrotation Yrotation Zrotation
												End Site
												{
													OFFSET -3.459808 4.342407 -0.466164
												}
											}
										}
									}
								}
								JOINT LeftHandRing1
								{
									OFFSET 22.726120 -0.094986 -6.500475
									CHANNELS 3 Xrotation Yrotation Zrotation
									JOINT LeftHandRing2
									{
										OFFSET 6.408615 0.000000 0.000000
										CHANNELS 3 Xrotation Yrotation Zrotation
										JOINT LeftHandRing3
										{
											OFFSET 6.150223 0.000000 0.000000
											CHANNELS 3 Xrotation Yrotation Zrotation
											JOINT LeftHandRing4
											{
												OFFSET 6.145386 0.000000 0.000000
												CHANNELS 3 Xrotation Yrotation Zrotation
												End Site
												{
													OFFSET -3.671402 4.923981 -0.202372
												}
											}
										}
									}
								}
								JOINT LeftHandMiddle1
								{
									OFFSET 23.373947 0.000000 0.000001
									CHANNELS 3 Xrotation Yrotation Zrotation
									JOINT LeftHandMiddle2
									{
										OFFSET 6.996567 0.000000 0.000000
										CHANNELS 3 Xrotation Yrotation Zrotation
										JOINT LeftHandMiddle3
										{
											OFFSET 7.015945 0.000000 0.000000
											CHANNELS 3 Xrotation Yrotation Zrotation
											JOINT LeftHandMiddle4
											{
												OFFSET 7.721573 0.000000 0.000000
												CHANNELS 3 Xrotation Yrotation Zrotation
												End Site
												{
													OFFSET -4.651108 6.158463 0.251582
												}
											}
										}
									}
								}
								JOINT LeftHandIndex1
								{
									OFFSET 21.310577 -0.490082 6.209344
									CHANNELS 3 Xrotation Yrotation Zrotation
									JOINT LeftHandIndex2
									{
										OFFSET 7.536453 0.000000 0.000000
										CHANNELS 3 Xrotation Yrotation Zrotation
										JOINT LeftHandIndex3
										{
											OFFSET 7.512344 0.000000 0.000000
											CHANNELS 3 Xrotation Yrotation Zrotation
											JOINT LeftHandIndex4
											{
												OFFSET 10.212402 0.000000 0.000001
												CHANNELS 3 Xrotation Yrotation Zrotation
												End Site
												{
													OFFSET -5.180801 8.690506 1.388433
												}
											}
										}
									}
								}
							}
						}
					}
				}
				JOINT RightShoulder
				{
					OFFSET -17.399500 24.608795 1.168800
					CHANNELS 3 Xrotation Yrotation Zrotation
					JOINT RightArm
					{
						OFFSET -18.980635 5.765305 1.818600
						CHANNELS 3 Xrotation Yrotation Zrotation
						JOINT RightForeArm
						{
							OFFSET -49.290169 0.000000 0.000000
							CHANNELS 3 Xrotation Yrotation Zrotation
							JOINT RightHand
							{
								OFFSET -31.562012 0.000000 0.000000
								CHANNELS 3 Xrotation Yrotation Zrotation
								JOINT RightHandThumb1
								{
									OFFSET -6.133995 -4.388519 7.076070
									CHANNELS 3 Xrotation Yrotation Zrotation
									JOINT RightHandThumb2
									{
										OFFSET -6.037666 -3.485840 3.485847
										CHANNELS 3 Xrotation Yrotation Zrotation
										JOINT RightHandThumb3
										{
											OFFSET -6.496506 -3.750763 3.750761
											CHANNELS 3 Xrotation Yrotation Zrotation
											JOINT RightHandThumb4
											{
												OFFSET -5.616882 -3.242905 3.242910
												CHANNELS 3 Xrotation Yrotation Zrotation
												End Site
												{
													OFFSET 1.254608 7.132141 0.375429
												}
											}
										}
									}
								}
								JOINT RightHandIndex1
								{
									OFFSET -21.310577 -0.490082 6.209344
									CHANNELS 3 Xrotation Yrotation Zrotation
									JOINT RightHandIndex2
									{
										OFFSET -7.536453 0.000000 0.000000
										CHANNELS 3 Xrotation Yrotation Zrotation
										JOINT RightHandIndex3
										{
											OFFSET -7.512344 0.000000 0.000000
											CHANNELS 3 Xrotation Yrotation Zrotation
											JOINT RightHandIndex4
											{
												OFFSET -10.212402 0.000000 0.000001
												CHANNELS 3 Xrotation Yrotation Zrotation
												End Site
												{
													OFFSET 5.180801 8.690506 1.388433
												}
											}
										}
									}
								}
								JOINT RightHandMiddle1
								{
									OFFSET -23.373947 0.000000 0.000001
									CHANNELS 3 Xrotation Yrotation Zrotation
									JOINT RightHandMiddle2
									{
										OFFSET -6.996567 0.000000 0.000000
										CHANNELS 3 Xrotation Yrotation Zrotation
										JOINT RightHandMiddle3
										{
											OFFSET -7.015945 0.000000 0.000000
											CHANNELS 3 Xrotation Yrotation Zrotation
											JOINT RightHandMiddle4
											{
												OFFSET -7.721573 0.000000 0.000000
												CHANNELS 3 Xrotation Yrotation Zrotation
												End Site
												{
													OFFSET 4.651108 6.158463 0.251582
												}
											}
										}
									}
								}
								JOINT RightHandRing1
								{
									OFFSET -22.726120 -0.094986 -6.500475
									CHANNELS 3 Xrotation Yrotation Zrotation
									JOINT RightHandRing2
									{
										OFFSET -6.408615 0.000000 0.000000
										CHANNELS 3 Xrotation Yrotation Zrotation
										JOINT RightHandRing3
										{
											OFFSET -6.150223 0.000000 0.000000
											CHANNELS 3 Xrotation Yrotation Zrotation
											JOINT RightHandRing4
											{
												OFFSET -6.145386 0.000000 0.000000
												CHANNELS 3 Xrotation Yrotation Zrotation
												End Site
												{
													OFFSET 3.671402 4.923981 -0.202372
												}
											}
										}
									}
								}
								JOINT RightHandPinky1
								{
									OFFSET -18.920792 -0.453171 -11.426712
									CHANNELS 3 Xrotation Yrotation Zrotation
									JOINT RightHandPinky2
									{
										OFFSET -4.919586 0.000000 0.000000
										CHANNELS 3 Xrotation Yrotation Zrotation
										JOINT RightHandPinky3
										{
											OFFSET -5.233047 0.000000 0.000000
											CHANNELS 3 Xrotation Yrotation Zrotation
											JOINT RightHandPinky4
											{
												OFFSET -5.571716 0.000000 0.000000
												CHANNELS 3 Xrotation Yrotation Zrotation
												End Site
												{
													OFFSET 3.459808 4.342407 -0.466164
												}
											}
										}
									}
								}
							}
						}
					}
				}
			}
		}
	}
	JOINT LeftUpLeg
	{
		OFFSET 19.899099 -7.885101 -3.429500
		CHANNELS 3 Xrotation Yrotation Zrotation
		JOINT LeftLeg
		{
			OFFSET 1.745560 -36.997807 10.304700
			CHANNELS 3 Xrotation Yrotation Zrotation
			JOINT LeftFoot
			{
				OFFSET -1.745558 -29.803308 -13.615400
				CHANNELS 3 Xrotation Yrotation Zrotation
				JOINT LeftToeBase
				{
					OFFSET 1.181900 -18.539904 15.226099
					CHANNELS 3 Xrotation Yrotation Zrotation
					JOINT LeftToe_End
					{
						OFFSET -0.863701 1.402801 16.534700
						CHANNELS 3 Xrotation Yrotation Zrotation
						End Site
						{
							OFFSET 0.000000 16.616566 0.000000
						}
					}
				}
			}
		}
	}
	JOINT RightUpLeg
	{
		OFFSET -19.899099 -7.885101 -3.429500
		CHANNELS 3 Xrotation Yrotation Zrotation
		JOINT RightLeg
		{
			OFFSET -1.745560 -36.997807 10.304700
			CHANNELS 3 Xrotation Yrotation Zrotation
			JOINT RightFoot
			{
				OFFSET 1.745558 -29.803308 -13.615400
				CHANNELS 3 Xrotation Yrotation Zrotation
				JOINT RightToeBase
				{
					OFFSET -1.181900 -18.539904 15.226099
					CHANNELS 3 Xrotation Yrotation Zrotation
					JOINT RightToe_End
					{
						OFFSET 0.863701 1.402801 16.534700
						CHANNELS 3 Xrotation Yrotation Zrotation
						End Site
						{
							OFFSET 0.000000 16.616566 0.000000
						}
					}
				}
			}
		}
	}
}
MOTION
Frames: 5
Frame Time: 0.033333
-2.016487 71.666260 0.351583 14.196410 -49.516197 10.418265 7.436578 3.690227 -3.546705 1.209060 1.421228 2.329481 0.209289 1.298780 1.049742 -1.850168 9.790070 -1.574597 -3.713965 23.671778 -4.983200 0.000001 0.000000 -0.000000 -2.413201 -9.915229 -4.104586 -4.670635 -14.996768 -46.826329 -96.670973 -58.172885 -94.771791 0.026871 -0.376936 -3.261896 4.769182 -0.872371 -14.440248 15.732263 12.674826 8.828566 63.207056 -8.274996 4.266035 0.000000 0.000001 -0.000001 -8.869067 8.268497 -85.753838 -0.037611 -0.061012 -74.103454 -0.010485 -0.045985 -48.547072 0.000000 -0.000004 -0.000008 -4.477740 3.925143 -90.410907 -1.099847 -0.638196 -62.306147 -0.097919 1.191846 -72.503612 0.000000 -0.000001 0.000005 -5.487121 2.422328 -86.651106 -0.061058 -4.892295 -76.603051 1.508704 0.536280 -67.241300 0.000001 -0.000000 0.000008 -3.611302 -7.813245 -81.262230 0.010104 -4.384193 -67.457257 1.851213 0.686287 -69.583194 -0.000000 -0.000000 0.000001 -7.387841 -19.317414 2.804116 3.089629 2.300447 51.805148 -16.214772 73.880558 16.739382 -2.716483 27.654717 10.524415 24.918311 -21.323308 30.343033 9.041915 8.262039 -18.001790 -16.109807 -19.128891 -12.401617 0.000001 0.000001 0.000001 -0.070836 -3.035136 61.424246 0.006551 4.395064 66.609125 1.919164 -0.429123 59.456694 -0.000000 0.000002 0.000002 -1.235388 -0.119442 68.274229 -0.077313 4.902857 84.501960 0.918929 -1.334312 32.710230 0.000001 -0.000001 -0.000004 0.883139 -4.613482 79.192970 -0.717784 1.136499 73.255650 -0.065348 -1.198569 39.144350 0.000002 0.000004 -0.000005 -3.944594 0.100009 86.764781 -0.029777 0.060123 54.415202 -0.007604 0.030611 25.829779 -0.000002 -0.000001 0.000004 -70.918004 18.171988 47.546996 43.389876 -16.213513 3.503682 11.513917 0.395650 -16.159989 -2.524556 -3.757395 4.098301 0.000000 -0.000002 0.000000 -26.567394 -19.873713 -46.675723 36.659425 7.562893 -1.327982 -12.783375 -10.423578 38.817553 -1.369711 0.620121 -0.986878 -0.000000 0.000000 -0.000000 
-2.555285 72.875381 -4.829242 3.195320 -45.172771 7.959540 6.918422 3.730842 -3.162490 1.243388 1.575008 2.386087 0.325806 1.478511 1.247701 1.154377 8.134083 -5.884398 -5.134129 19.450543 -1.875451 -0.000000 -0.000000 0.000000 -1.514444 -10.032050 1.091495 4.425872 -18.709300 -38.809227 -100.671087 -51.435146 -99.373023 -0.327537 11.026990 -4.051614 4.744872 -0.891050 -14.412432 15.732270 12.674830 8.828565 63.207049 -8.274998 4.266034 -0.000000 -0.000000 -0.000001 -8.868583 8.263666 -85.695761 -0.042644 -0.063884 -74.056545 -0.014396 -0.048721 -48.506286 -0.000003 0.000002 0.000001 -4.479742 3.924753 -90.332489 -1.103221 -0.640496 -62.284440 -0.101013 1.188778 -72.459708 -0.000001 0.000005 0.000005 -5.483579 2.419514 -86.561467 -0.064617 -4.894728 -76.579951 1.506341 0.535326 -67.192655 -0.000002 0.000002 0.000009 -3.604214 -7.816522 -81.176457 0.007686 -4.386321 -67.413858 1.849221 0.683016 -69.542111 -0.000001 0.000003 0.000001 -5.711624 -12.787875 3.905179 2.149537 4.255555 52.873949 -5.757473 69.425547 6.301255 -2.965535 25.938571 11.289858 24.918304 -21.323302 30.343033 9.041913 8.262040 -18.001790 -16.109799 -19.128889 -12.401621 0.000001 -0.000002 -0.000000 -0.070835 -3.035141 61.424240 0.006552 4.395061 66.609125 1.919162 -0.429116 59.456687 -0.000001 -0.000001 -0.000001 -1.235392 -0.119440 68.274229 -0.077312 4.902855 84.501960 0.918930 -1.334308 32.710230 0.000000 0.000001 -0.000004 0.883135 -4.613480 79.192977 -0.717784 1.136499 73.255650 -0.065345 -1.198570 39.144354 0.000002 0.000001 -0.000005 -3.944599 0.100008 86.764781 -0.029776 0.060125 54.415209 -0.007603 0.030609 25.829781 0.000001 -0.000005 0.000003 -62.772655 27.232792 41.535941 28.592231 -16.977759 2.558658 23.034740 -4.345793 -15.046816 -2.533137 -3.761813 4.093320 -0.000000 -0.000002 0.000000 -22.507627 -20.327944 -51.810417 44.711648 8.026525 -1.451703 -19.532031 -13.281486 36.027936 -1.369695 0.620063 -0.986881 0.000000 0.000000 0.000000 
-3.352804 73.795204 -12.191569 -7.596259 -40.348970 6.072448 5.530603 3.824018 -1.453407 1.233386 2.080123 2.485707 0.520218 2.037848 1.656536 4.880165 5.185793 -13.661496 -6.527427 10.748214 4.049972 -0.000000 -0.000000 -0.000000 -0.518152 -9.968279 6.776083 16.500088 -19.911272 -30.489783 -105.243605 -48.803689 -104.652452 0.457249 19.073761 -11.561780 4.682636 -0.949854 -14.325948 15.732263 12.674837 8.828564 63.207049 -8.274993 4.266028 -0.000000 -0.000001 0.000003 -8.868411 8.263619 -85.528571 -0.042520 -0.063815 -73.915064 -0.014301 -0.048602 -48.383875 0.000000 -0.000000 -0.000001 -4.479692 3.922775 -90.110522 -1.104224 -0.647954 -62.219321 -0.100893 1.188794 -72.326813 -0.000000 -0.000000 0.000002 -5.483127 2.419502 -86.303490 -0.064551 -4.894729 -76.507066 1.510103 0.537346 -67.047288 -0.000001 0.000000 0.000007 -3.584739 -7.813487 -80.928364 0.007621 -4.386315 -67.284296 1.852399 0.685966 -69.416982 -0.000000 0.000001 0.000001 -4.024350 -5.798546 4.508947 -0.077398 8.960409 55.833900 7.546177 56.991187 -5.944905 -3.431224 21.392272 13.261346 24.918306 -21.323297 30.343037 9.041916 8.262043 -18.001790 -16.109797 -19.128889 -12.401618 -0.000000 0.000003 -0.000000 -0.070836 -3.035145 61.424240 0.006553 4.395065 66.609125 1.919159 -0.429121 59.456687 -0.000001 -0.000001 -0.000002 -1.235396 -0.119442 68.274223 -0.077313 4.902857 84.501960 0.918929 -1.334310 32.710227 -0.000000 0.000000 -0.000004 0.883136 -4.613481 79.192970 -0.717783 1.136502 73.255650 -0.065344 -1.198572 39.144354 -0.000001 -0.000000 -0.000003 -3.944595 0.100008 86.764781 -0.029777 0.060123 54.415209 -0.007604 0.030609 25.829781 0.000001 -0.000000 0.000006 -56.032570 22.133925 33.089910 41.351673 -13.468494 2.751641 25.770524 -3.277187 -17.925975 -2.171853 -3.283949 4.503879 -0.000000 0.000000 0.000000 -17.637357 -21.533368 -54.436526 53.710647 8.990210 -0.919418 -27.881647 -17.199385 30.242022 -1.369718 0.620084 -0.986830 0.000000 0.000000 -0.000000 
-5.401546 78.655548 -21.795033 -17.750338 -35.051984 5.199484 3.628820 3.567790 0.680181 1.010837 3.003476 2.523993 0.561469 3.008531 2.001200 3.275492 3.636401 -18.152927 -6.176565 2.987987 9.286108 -0.000000 0.000001 0.000000 0.437821 -9.710796 12.392384 29.126112 -18.766892 -23.521049 -114.153027 -55.118783 -113.341935 3.781659 20.696341 -25.127701 4.580392 -1.046290 -14.183926 15.732267 12.674828 8.828568 63.207049 -8.274997 4.266032 0.000003 0.000003 -0.000001 -8.868128 8.263678 -85.253649 -0.042249 -0.063730 -73.682380 -0.014142 -0.048425 -48.182729 0.000000 -0.000000 -0.000004 -4.479612 3.919197 -89.745721 -1.105398 -0.649881 -62.108030 -0.100682 1.188863 -72.108281 0.000001 0.000002 0.000003 -5.482507 2.419577 -85.879575 -0.064427 -4.894692 -76.387272 1.509970 0.538260 -66.808068 -0.000002 0.000000 0.000001 -3.552833 -7.808011 -80.520438 0.007555 -4.386336 -67.071440 1.851800 0.686989 -69.210969 -0.000004 0.000005 0.000000 -2.367565 1.164772 4.549155 -2.730289 14.689404 60.210228 16.137652 40.325758 -10.807535 -3.616217 14.920466 15.972047 24.918308 -21.323302 30.343033 9.041911 8.262038 -18.001787 -16.109800 -19.128891 -12.401618 0.000001 -0.000003 0.000003 -0.070832 -3.035140 61.424246 0.006557 4.395065 66.609125 1.919159 -0.429116 59.456694 -0.000000 -0.000001 -0.000001 -1.235392 -0.119439 68.274229 -0.077316 4.902853 84.501967 0.918929 -1.334311 32.710230 0.000001 -0.000001 -0.000006 0.883136 -4.613480 79.192970 -0.717782 1.136501 73.255650 -0.065346 -1.198570 39.144347 -0.000002 0.000001 -0.000005 -3.944596 0.100009 86.764781 -0.029778 0.060123 54.415205 -0.007604 0.030610 25.829784 -0.000000 -0.000003 0.000003 -47.519043 14.632996 22.965041 53.578200 -7.124682 1.381054 30.621070 -2.871050 -20.891160 -1.621994 -3.225359 4.454568 0.000000 -0.000000 0.000000 -10.048522 -20.901559 -50.919094 55.387862 9.180169 -3.170968 -27.905860 -14.736236 25.905424 -8.048115 16.490937 -3.402750 0.000000 -0.000001 0.000001 
-7.808425 85.658249 -33.321686 -26.157835 -30.248948 5.216825 1.543359 3.161330 2.557229 0.410908 4.416169 2.435940 0.223692 4.436048 2.134789 -5.143458 3.067613 -19.905545 -4.537198 -4.663227 14.685083 -0.000003 -0.000001 -0.000000 1.257442 -9.239621 17.627654 40.522180 -16.181468 -17.307233 -134.995028 -67.004463 -131.685337 2.757498 12.977269 -34.726461 4.458509 -1.161316 -14.014764 15.732263 12.674825 8.828564 63.207049 -8.274996 4.266034 -0.000003 -0.000000 0.000000 -8.867815 8.263782 -84.925712 -0.041929 -0.063614 -73.404876 -0.013932 -0.048204 -47.942648 -0.000000 -0.000002 -0.000004 -4.479610 3.914386 -89.310761 -1.106727 -0.652028 -61.975292 -0.100457 1.188900 -71.847539 -0.000000 0.000000 0.000003 -5.481890 2.419571 -85.373902 -0.064263 -4.894619 -76.244241 1.510792 0.538662 -66.522785 0.000001 -0.000000 0.000004 -3.514991 -7.801126 -80.033923 0.007456 -4.386348 -66.817487 1.852108 0.687167 -68.965287 -0.000000 0.000003 0.000001 -0.736833 7.944427 4.049918 -5.170795 19.927033 65.011510 22.943299 24.439110 -10.667652 -3.149343 7.468679 19.110092 24.918308 -21.323304 30.343033 9.041913 8.262041 -18.001787 -16.109802 -19.128889 -12.401622 0.000001 0.000003 0.000001 -0.070833 -3.035138 61.424240 0.006554 4.395062 66.609125 1.919162 -0.429120 59.456694 -0.000000 -0.000001 -0.000001 -1.235395 -0.119439 68.274229 -0.077312 4.902855 84.501960 0.918931 -1.334311 32.710223 0.000001 0.000000 -0.000004 0.883138 -4.613478 79.192970 -0.717781 1.136497 73.255643 -0.065344 -1.198572 39.144347 0.000001 -0.000000 -0.000005 -3.944598 0.100007 86.764774 -0.029776 0.060123 54.415202 -0.007603 0.030614 25.829781 -0.000003 0.000004 0.000001 -40.885926 8.123487 15.516494 62.715507 -1.702092 -0.753733 37.435895 -4.581474 -23.401314 -1.190310 -3.612917 4.072883 -0.000002 -0.000000 0.000000 -3.865156 -19.784860 -43.202692 51.219404 6.447884 -8.476099 -23.021482 -6.662912 23.864061 -13.813909 8.321424 -11.664297 0.000001 0.000003 0.000000 
